<?xml version="1.0" standalone="no"?>
<!DOCTYPE svg PUBLIC "-//W3C//DTD SVG 20010904//EN"
 "http://www.w3.org/TR/2001/REC-SVG-20010904/DTD/svg10.dtd">
<svg version="1.0" xmlns="http://www.w3.org/2000/svg"
 width="1010.000000pt" height="148.000000pt" viewBox="0 0 1010.000000 148.000000"
 preserveAspectRatio="xMidYMid meet">
<metadata>
Created by potrace 1.12, written by Peter Selinger 2001-2015
</metadata>
<g transform="translate(0.000000,148.000000) scale(0.100000,-0.100000)"
fill="#000000" stroke="none">
<path d="M370 1269 c-151 -68 -213 -271 -111 -363 20 -18 20 -18 -29 -43 -102
-51 -170 -165 -170 -287 0 -77 18 -123 64 -163 48 -43 96 -56 181 -51 89 6
180 46 242 107 l43 42 16 -41 c35 -87 120 -119 213 -79 29 12 65 37 80 56 l29
35 10 -30 c31 -90 138 -104 240 -32 38 27 47 29 54 17 12 -23 68 -54 111 -61
67 -12 140 10 230 71 45 30 89 61 98 69 24 21 29 17 29 -24 0 -37 19 -76 50
-99 41 -31 132 -23 183 17 32 26 35 25 29 -5 -3 -19 -21 -33 -78 -60 -88 -42
-124 -86 -124 -151 0 -79 58 -119 159 -112 99 7 165 77 192 203 16 80 24 92
58 100 45 10 109 71 141 136 36 71 37 79 6 79 -18 0 -27 -9 -40 -44 -18 -46
-76 -111 -108 -122 -11 -3 -21 -4 -23 -2 -1 1 24 127 56 278 32 151 59 276 59
278 0 1 -39 1 -87 0 l-88 -3 -43 -200 c-23 -110 -50 -215 -60 -235 -33 -67
-103 -79 -110 -19 -1 13 18 120 43 237 25 117 45 215 45 218 0 3 -39 3 -87 2
l-87 -3 -41 -195 -41 -194 -40 -29 -39 -29 -12 159 c-6 87 -12 193 -12 235 -1
42 -6 80 -12 83 -5 4 -47 2 -92 -5 l-82 -11 -34 -97 c-42 -121 -105 -249 -136
-278 -13 -12 -29 -41 -36 -65 -21 -75 -73 -102 -105 -55 -15 23 -13 38 30 241
25 119 46 223 46 231 0 11 -17 14 -84 14 -81 0 -84 -1 -90 -24 l-6 -25 -25 25
c-52 52 -194 19 -265 -62 -59 -68 -120 -219 -120 -299 0 -52 -74 -107 -166
-124 -97 -18 -154 24 -154 114 0 103 64 214 152 264 l49 28 -36 22 c-40 23
-74 87 -75 137 0 45 28 118 54 143 13 12 39 24 58 28 73 11 103 -68 53 -141
l-24 -36 23 -15 c29 -20 64 -8 96 32 19 24 21 37 18 90 -3 53 -9 68 -33 93
-50 53 -154 66 -235 29z m601 -370 c11 -11 18 -28 15 -37 -3 -9 -17 -71 -31
-137 -34 -160 -41 -180 -76 -210 -39 -32 -74 -32 -95 0 -14 21 -16 41 -11 103
10 133 67 260 130 287 42 19 44 18 68 -6z m465 -176 c13 -168 10 -193 -26
-225 -40 -36 -101 -39 -124 -6 -23 32 -20 48 8 48 46 0 70 47 45 88 -9 14 -6
28 13 68 14 27 33 72 43 101 10 29 22 50 26 48 3 -3 11 -58 15 -122z"/>
<path d="M2913 1276 c-147 -48 -247 -178 -305 -396 -30 -113 -33 -311 -5 -380
35 -85 96 -127 201 -137 102 -9 197 20 281 87 44 35 50 31 36 -29 l-9 -41 87
0 88 0 37 178 c21 97 44 198 52 224 30 93 108 131 128 61 6 -24 2 -62 -19
-155 -30 -137 -35 -200 -16 -244 17 -43 65 -68 126 -68 58 1 98 19 139 63 l29
30 16 -32 c9 -19 32 -40 55 -51 35 -17 46 -18 95 -8 30 6 72 23 94 38 l39 26
-7 -32 -7 -31 88 3 88 3 42 197 c23 108 50 214 61 235 25 47 65 73 90 57 28
-17 27 -82 -1 -215 -30 -137 -31 -167 -12 -214 21 -48 57 -68 124 -68 65 0
108 18 145 62 l25 30 39 -38 c53 -53 106 -67 195 -51 65 11 173 68 193 100 5
8 14 1 27 -21 28 -46 56 -66 110 -79 88 -22 185 16 320 122 l37 29 11 -40 c31
-116 179 -151 328 -79 48 23 136 106 165 157 18 30 18 31 0 31 -11 0 -35 -16
-54 -36 -45 -47 -85 -71 -137 -83 -52 -11 -107 2 -122 29 -14 27 -13 110 3
114 136 37 191 71 232 141 29 49 42 128 26 167 -36 95 -238 78 -330 -28 -48
-54 -92 -151 -111 -242 -14 -72 -20 -86 -46 -102 l-29 -20 -12 168 c-6 92 -12
200 -12 240 l-1 74 -67 -8 c-114 -12 -115 -13 -141 -85 -45 -130 -107 -265
-137 -299 -17 -19 -39 -47 -48 -63 -56 -89 -230 -123 -257 -51 -14 36 -12 104
3 108 143 39 200 76 241 158 70 140 -2 237 -153 208 -99 -19 -168 -75 -220
-181 -31 -63 -60 -177 -61 -232 0 -35 -49 -87 -82 -87 -55 0 -60 38 -23 194
14 58 25 135 25 172 0 59 -3 68 -28 94 -50 50 -137 52 -207 4 l-37 -25 7 31 7
31 -88 -3 -88 -3 -41 -195 c-23 -107 -45 -205 -49 -217 -9 -29 -72 -83 -96
-83 -63 0 -63 19 -7 288 24 111 41 204 39 207 -9 9 -161 5 -166 -4 -3 -5 -24
-96 -47 -202 -22 -106 -47 -205 -55 -220 -20 -39 -64 -70 -92 -67 -43 5 -49
29 -29 120 44 204 49 237 43 272 -20 108 -147 139 -252 61 -20 -15 -19 -10 11
132 18 82 32 149 31 149 -1 1 -40 -3 -88 -9 -64 -8 -89 -15 -92 -26 -3 -9 -32
-146 -66 -306 -54 -256 -65 -293 -88 -318 -49 -52 -108 -79 -181 -85 -80 -5
-122 12 -147 61 -61 117 10 475 124 625 59 78 149 83 175 10 8 -24 -11 -89
-35 -115 -20 -21 -20 -21 0 -32 39 -21 89 -13 112 17 18 23 21 37 18 89 -4 67
-25 100 -81 130 -41 21 -153 26 -204 9z m2141 -362 c23 -61 -32 -172 -105
-210 -49 -25 -62 -19 -54 24 9 51 46 130 79 170 30 34 70 43 80 16z m926 -5
c20 -37 -14 -131 -63 -177 -22 -20 -97 -55 -104 -48 -2 2 4 27 13 57 43 143
122 229 154 168z m-612 -198 c12 -136 11 -154 -10 -197 -21 -45 -103 -59 -138
-24 -29 29 -27 59 3 53 43 -8 76 54 45 85 -8 8 -2 30 25 90 20 43 39 90 42
105 4 15 10 27 14 27 4 0 12 -63 19 -139z"/>
<path d="M6693 1276 c-129 -31 -256 -123 -301 -217 -49 -102 -9 -199 82 -199
22 0 23 2 13 43 -21 91 32 220 113 273 22 15 43 25 45 22 3 -3 -33 -185 -80
-405 -47 -220 -85 -403 -85 -407 0 -3 38 -6 84 -6 72 0 85 3 90 18 3 9 24 105
46 212 23 107 43 203 46 213 8 24 68 23 94 -3 28 -28 26 -79 -10 -220 -39
-153 -39 -191 -2 -220 23 -19 36 -21 88 -17 80 6 88 11 68 43 -22 33 -20 83
10 201 52 206 26 279 -103 286 -28 1 -51 4 -51 7 0 3 72 88 160 190 l160 185
-56 3 c-33 2 -62 -2 -70 -9 -8 -6 -69 -86 -135 -176 -67 -90 -123 -162 -125
-160 -2 2 12 78 31 168 19 90 35 170 35 176 0 17 -77 16 -147 -1z"/>
<path d="M3906 1209 c-47 -56 -29 -127 39 -149 97 -32 168 97 88 160 -40 32
-95 27 -127 -11z"/>
<path d="M7229 1211 c-50 -51 -32 -129 35 -151 95 -31 167 81 97 151 -41 40
-91 40 -132 0z"/>
<path d="M8415 1216 l-80 -11 -65 -303 -65 -302 -40 -41 c-52 -54 -105 -80
-166 -81 -39 -1 -55 3 -72 21 -19 19 -22 31 -20 93 3 110 60 275 111 321 11
10 31 17 44 15 21 -3 23 -8 23 -63 l0 -60 32 -3 c40 -4 63 27 63 85 0 82 -73
123 -181 103 -149 -28 -239 -160 -274 -402 -8 -55 -42 -90 -89 -92 -64 -2 -65
7 -16 238 l43 206 39 0 c34 0 38 3 38 25 0 22 -4 25 -34 25 l-33 0 18 78 c28
117 33 110 -68 97 l-87 -10 -19 -82 c-15 -67 -22 -83 -37 -83 -16 0 -30 -18
-30 -41 0 -5 9 -9 20 -9 16 0 19 -5 15 -22 -3 -13 -21 -94 -40 -181 -19 -87
-42 -170 -51 -186 -30 -50 -95 -76 -122 -49 -19 19 -14 59 32 273 24 110 40
204 36 208 -4 4 -42 7 -86 5 l-78 -3 -17 -75 c-10 -41 -32 -147 -50 -235 -35
-177 -32 -222 16 -270 52 -52 172 -36 244 33 l39 37 14 -29 c43 -95 190 -94
282 3 l29 30 21 -31 c35 -53 80 -73 161 -72 85 1 159 31 225 90 l43 39 -7 -40
c-4 -22 -10 -50 -13 -63 -5 -23 -5 -23 83 -20 l89 3 41 197 c23 108 50 214 61
235 25 47 65 73 90 57 28 -17 27 -82 -2 -220 -32 -150 -29 -203 16 -244 32
-31 87 -43 139 -31 50 11 74 26 105 63 l27 32 25 -32 c38 -50 78 -66 160 -66
82 1 149 28 222 91 42 35 44 36 38 13 -3 -14 -9 -42 -12 -62 l-7 -38 85 0 c73
0 86 3 91 18 3 9 21 96 42 192 20 96 43 191 51 210 19 46 52 80 78 80 53 0 57
-44 20 -214 -32 -146 -32 -193 -2 -237 44 -65 150 -74 225 -19 39 28 96 115
107 163 6 23 4 27 -13 27 -13 0 -29 -15 -46 -45 -28 -46 -52 -65 -83 -65 -55
1 -58 38 -19 200 43 174 31 256 -39 286 -60 25 -138 11 -189 -34 -18 -16 -19
-16 -13 16 l7 33 -88 -3 -87 -3 -41 -193 c-39 -181 -44 -196 -75 -228 -19 -20
-49 -45 -68 -56 -71 -45 -167 -41 -189 8 -16 34 -15 104 1 108 142 39 196 73
239 151 36 66 38 142 6 180 -42 48 -156 53 -239 10 -43 -23 -100 -84 -132
-142 -27 -51 -67 -196 -67 -246 0 -35 -49 -87 -82 -87 -55 0 -60 39 -23 192
14 58 25 133 25 171 0 62 -3 71 -28 97 -50 50 -137 52 -206 5 l-36 -25 5 23
c16 68 55 258 55 267 0 5 -3 9 -7 9 -5 -1 -44 -7 -88 -13z m749 -302 c23 -61
-32 -172 -105 -210 -49 -25 -62 -19 -54 22 9 52 47 134 79 172 30 34 70 43 80
16z"/>
</g>
</svg>
